<svg xmlns="http://www.w3.org/2000/svg" width="20.673" height="20.14" viewBox="0 0 20.673 20.14">
  <path id="Path_340" data-name="Path 340" d="M20.212,12.921c-.6-.658-1.868-1-3.644-1a20.2,20.2,0,0,0-3.253.3A15.92,15.92,0,0,1,11.34,9.936a21.378,21.378,0,0,1-1.225-1.921,17.925,17.925,0,0,0,1.033-5.121c.008-1.4-.521-2.894-2-2.894A1.4,1.4,0,0,0,7.995.689c-.681,1.179-.352,3.782.8,6.346-.421,1.271-.88,2.5-1.454,3.873a34.66,34.66,0,0,1-1.661,3.437C2.307,15.693.149,17.239-.081,18.479a1.288,1.288,0,0,0,.413,1.209,1.893,1.893,0,0,0,1.294.452c2.235,0,4.578-3.59,5.787-5.764.911-.314,1.837-.6,2.756-.842,1.026-.268,2.013-.49,2.947-.651a8.312,8.312,0,0,0,5.473,2.434c1.271,0,1.73-.521,1.891-.949A1.449,1.449,0,0,0,20.212,12.921Zm-1.2.888a1.106,1.106,0,0,1-1.2.773,2.473,2.473,0,0,1-.521-.061,8.255,8.255,0,0,1-3.368-1.768,16.233,16.233,0,0,1,2.58-.214,8.505,8.505,0,0,1,1.569.122C18.49,12.738,19.171,13.006,19.01,13.809Zm-6.476-1.454c-.8.153-1.653.344-2.518.582-.712.191-1.439.406-2.166.643.39-.75.743-1.508,1.033-2.212.36-.865.681-1.73.972-2.564.314.528.643,1.033.98,1.5a17.165,17.165,0,0,0,1.722,2.052ZM8.538,1a.7.7,0,0,1,.6-.375c.635,0,.773.72.773,1.324A16.078,16.078,0,0,1,9.1,6.132C8.148,3.759,8.094,1.776,8.538,1ZM5.178,15.241C3.632,17.813,2.124,19.4,1.2,19.4a.62.62,0,0,1-.444-.161A.664.664,0,0,1,.539,18.6C.715,17.675,2.483,16.4,5.178,15.241Z" transform="translate(0.104)" fill="gray"/>
</svg>
