<svg xmlns="http://www.w3.org/2000/svg" width="18.273" height="18.256" viewBox="0 0 18.273 18.256">
  <path id="Path_339" data-name="Path 339" d="M17.48,12.637q-.084-.112-.224-.28a8.553,8.553,0,0,1-2.124-3.54c-.019-.056-.037-.13-.056-.186s-.037-.13-.056-.186a8.8,8.8,0,0,1,.056-4.118s.056-.224.075-.317A3.443,3.443,0,0,0,8.5,2.314l-.075.224A8.484,8.484,0,0,1,6.449,6.1,8.38,8.38,0,0,1,2.536,8.407,3.481,3.481,0,0,0,.1,12.656a3.45,3.45,0,0,0,4.23,2.422A8.637,8.637,0,0,1,8.462,15c.056.019.13.037.186.056s.13.037.186.056a8.553,8.553,0,0,1,3.54,2.124,2.039,2.039,0,0,0,.335.28,3.434,3.434,0,0,0,4.77-4.882Zm-8.366.615a3.376,3.376,0,1,1,4.137-2.385A3.368,3.368,0,0,1,9.114,13.252Z" transform="translate(0.021 0.019)" fill="gray"/>
</svg>
