<svg xmlns="http://www.w3.org/2000/svg" width="14.616" height="18.259" viewBox="0 0 14.616 18.259">
  <path id="Path_341" data-name="Path 341" d="M13.02,3.868a4.958,4.958,0,0,1,1.6-.247V0a7.687,7.687,0,0,0-6.3,2.968A11.644,11.644,0,0,0,6.746,5.622L5.577,8.5A20.188,20.188,0,0,1,4.52,11.086,11.885,11.885,0,0,1,3.44,13.02,4.036,4.036,0,0,1,2,14.189a4.607,4.607,0,0,1-2,.4v3.665a7.687,7.687,0,0,0,6.3-2.968,12.6,12.6,0,0,0,1.282-2.069l.989-2.294h4.205V7.286H10.007a11.293,11.293,0,0,1,.832-1.574,4.428,4.428,0,0,1,.967-1.124,3.481,3.481,0,0,1,1.214-.72Z" fill="gray" fill-rule="evenodd"/>
</svg>
